<?xml version="1.0" standalone="no"?><!DOCTYPE svg PUBLIC "-//W3C//DTD SVG 1.1//EN" "http://www.w3.org/Graphics/SVG/1.1/DTD/svg11.dtd"><svg t="1673198843642" class="icon" viewBox="0 0 1024 1024" version="1.1" xmlns="http://www.w3.org/2000/svg" p-id="767" xmlns:xlink="http://www.w3.org/1999/xlink" width="1000" height="1000"><path d="M456.3 816.9H341.7c-10.5 0-19.1-8.6-19.1-19.1 0-10.5 8.6-19.1 19.1-19.1h114.6c10.5 0 19.1 8.6 19.1 19.1 0 10.6-8.5 19.1-19.1 19.1z" fill="#49C1FC" p-id="768"></path><path d="M881.6 441.6h-573c-10.5 0-19.1 8.6-19.1 19.1v305.6c0 10.5 8.6 19.1 19.1 19.1h229c-2.9 3.4-4.9 7.6-4.9 12.4 0 10.5 8.6 19.1 19.1 19.1h191c10.5 0 19.1-8.6 19.1-19.1 0-4.8-1.9-9.1-4.9-12.4h124.5c10.5 0 19.1-8.6 19.1-19.1V460.7c0.1-10.6-8.4-19.1-19-19.1zM223.6 420.6c0-10.5-8.6-19.1-19.1-19.1v-19.1c0-10.5-8.6-19.1-19.1-19.1-10.5 0-19.1 8.6-19.1 19.1v19.1h-38.2c-10.5 0-19.1 8.6-19.1 19.1 0 10.5 8.6 19.1 19.1 19.1h38.2V497h-38.2c-10.5 0-19.1 8.6-19.1 19.1 0 10.5 8.6 19.1 19.1 19.1-10.5 0-19.1 8.6-19.1 19.1 0 10.5 8.6 19.1 19.1 19.1h38.2v76.4h-28.7c-10.5 0-19.1 8.6-19.1 19.1s8.6 19.1 19.1 19.1h28.7v114.6c0 10.5 8.6 19.1 19.1 19.1 10.5 0 19.1-8.6 19.1-19.1V685.1c5.6-3.3 9.6-9.2 9.6-16.2s-3.9-12.8-9.6-16.2v-79.3c10.5 0 19.1-8.6 19.1-19.1 0-10.5-8.6-19.1-19.1-19.1 10.5 0 19.1-8.6 19.1-19.1 0-10.5-8.6-19.1-19.1-19.1v-57.3c10.5 0 19.1-8.6 19.1-19.1z" fill="#49C1FC" p-id="769"></path><path d="M448.8 843.5c2.3 0.3 4.5 0.8 6.8 1.1-2.3-0.8-4.5-1.9-6.8-2.8v1.7z" fill="#FFD939" p-id="770"></path><path d="M404.1 460.7c52.7 0 95.5 42.8 95.5 95.5s-42.8 95.5-95.5 95.5-95.5-42.8-95.5-95.5 42.9-95.5 95.5-95.5m0-19.1c-63.3 0-114.6 51.3-114.6 114.6s51.3 114.6 114.6 114.6 114.6-51.3 114.6-114.6-51.3-114.6-114.6-114.6zM671.5 460.7c52.7 0 95.5 42.8 95.5 95.5s-42.8 95.5-95.5 95.5-95.5-42.8-95.5-95.5 42.9-95.5 95.5-95.5m0-19.1c-63.3 0-114.6 51.3-114.6 114.6s51.3 114.6 114.6 114.6 114.6-51.3 114.6-114.6-51.3-114.6-114.6-114.6z" fill="" p-id="771"></path><path d="M147.2 344.2v420.2" fill="#FFD939" p-id="772"></path><path d="M128.1 344.2h38.2v420.2h-38.2z" fill="" p-id="773"></path><path d="M89.9 382.4h76.4" fill="#FFD939" p-id="774"></path><path d="M89.9 344.2h76.4v76.4H89.9z" fill="" p-id="775"></path><path d="M99.4 477.9h57.3" fill="#FFD939" p-id="776"></path><path d="M99.4 468.3h57.3v19.1H99.4z" fill="" p-id="777"></path><path d="M99.4 516.1h57.3" fill="#FFD939" p-id="778"></path><path d="M99.4 506.5h57.3v19.1H99.4z" fill="" p-id="779"></path><path d="M99.4 630.7h57.3" fill="#FFD939" p-id="780"></path><path d="M99.4 582.9h57.3v95.5H99.4zM824.3 403.4V709h-573V403.4h573m0-38.2h-573c-21.1 0-38.2 17.1-38.2 38.2V709c0 21.1 17.1 38.2 38.2 38.2h573c21.1 0 38.2-17.1 38.2-38.2V403.4c0-21.1-17.1-38.2-38.2-38.2z" fill="" p-id="781"></path><path d="M265.3 759.6h114.6" fill="#FFD939" p-id="782"></path><path d="M265.3 740.5h114.6v38.2H265.3z" fill="" p-id="783"></path><path d="M382.1 534.2c-15.1-26.7-43.6-35.8-69.6-22.1l-5.3-10.1c31.2-16.4 66.9-5.3 84.9 26.6l-10 5.6zM471.4 617.9c-22 0-42.9-12.1-55.3-34.1l10-5.6c15.1 26.7 43.7 35.8 69.6 22.1l5.3 10.1c-9.6 5.1-19.7 7.5-29.6 7.5zM304.2 574.5l-10.3-5.1c15.6-31.7 51-43.7 84.3-28.5l-4.8 10.4c-27.8-12.6-56.2-3.1-69.2 23.2zM459.1 578c-9.5 0-19.4-2.1-29-6.5l4.8-10.4c27.8 12.7 56.3 3.2 69.2-23.1l10.3 5.1c-11.1 22.3-32.2 34.9-55.3 34.9zM322.7 631.8c-5.9-34.8 15.7-65.4 51.5-72.7l2.3 11.2c-29.9 6.1-47.4 30.6-42.5 59.5l-11.3 2zM434 553.2l-2.3-11.2c29.9-6.1 47.4-30.6 42.5-59.5l11.3-1.9c5.9 34.8-15.7 65.3-51.5 72.6z" fill="" p-id="784"></path><path d="M382.6 665.3c-25.2-24.7-25.6-62.2-1-89.1l8.5 7.7c-20.6 22.6-20.4 52.7 0.6 73.2l-8.1 8.2zM426.6 536.2l-8.5-7.7c20.6-22.6 20.4-52.7-0.5-73.2l8-8.2c25.2 24.6 25.7 62.1 1 89.1z" fill="" p-id="785"></path><path d="M450.7 657.2c-34.9-5.1-57.2-35.2-53.1-71.5L409 587c-3.5 30.5 14.4 54.7 43.3 58.9l-1.6 11.3zM410.6 526.8l-11.4-1.3c3.4-30.5-14.4-54.7-43.3-58.9l1.7-11.3c34.8 5 57.1 35.1 53 71.5z" fill="" p-id="786"></path><path d="M404.1 529.4c14.7 0 26.7 12 26.7 26.7s-12 26.7-26.7 26.7-26.7-12-26.7-26.7 12-26.7 26.7-26.7m0-11.4c-21.1 0-38.2 17.1-38.2 38.2s17.1 38.2 38.2 38.2 38.2-17.1 38.2-38.2-17.1-38.2-38.2-38.2z" fill="" p-id="787"></path><path d="M649.5 534.2c-15.1-26.7-43.6-35.8-69.6-22.1l-5.3-10.1c31.2-16.4 66.9-5.3 84.9 26.6l-10 5.6zM738.8 617.9c-22 0-42.9-12.1-55.3-34.1l10-5.6c15.1 26.7 43.7 35.8 69.6 22.1l5.3 10.1c-9.6 5.1-19.7 7.5-29.6 7.5zM571.6 574.5l-10.3-5.1c15.6-31.7 51.1-43.7 84.3-28.5l-4.8 10.4c-27.8-12.6-56.2-3.1-69.2 23.2zM726.5 578c-9.5 0-19.4-2.1-29-6.5l4.8-10.4c27.8 12.7 56.3 3.2 69.2-23.1l10.3 5.1c-11.1 22.3-32.2 34.9-55.3 34.9zM590.1 631.8c-5.9-34.8 15.7-65.4 51.5-72.7l2.3 11.2c-29.9 6.1-47.4 30.6-42.5 59.5l-11.3 2zM701.4 553.2l-2.3-11.2c29.9-6.1 47.4-30.6 42.5-59.5l11.3-1.9c6 34.8-15.7 65.3-51.5 72.6z" fill="" p-id="788"></path><path d="M650 665.3c-25.2-24.7-25.6-62.2-1-89.1l8.5 7.7c-20.6 22.6-20.4 52.7 0.6 73.2l-8.1 8.2zM694 536.2l-8.5-7.7c20.6-22.6 20.4-52.7-0.5-73.2l8-8.2c25.2 24.6 25.7 62.1 1 89.1z" fill="" p-id="789"></path><path d="M718.1 657.2c-34.9-5.1-57.2-35.2-53.1-71.5l11.4 1.3c-3.5 30.5 14.4 54.7 43.3 58.9l-1.6 11.3zM678 526.8l-11.4-1.3c3.4-30.5-14.4-54.7-43.3-58.9l1.7-11.3c34.8 5 57.1 35.1 53 71.5z" fill="" p-id="790"></path><path d="M671.5 529.4c14.7 0 26.7 12 26.7 26.7s-12 26.7-26.7 26.7-26.7-12-26.7-26.7 12-26.7 26.7-26.7m0-11.4c-21.1 0-38.2 17.1-38.2 38.2s17.1 38.2 38.2 38.2 38.2-17.1 38.2-38.2-17.1-38.2-38.2-38.2z" fill="" p-id="791"></path><path d="M475.4 759.6h191" fill="#FFD939" p-id="792"></path><path d="M475.4 740.5h191v38.2h-191z" fill="" p-id="793"></path></svg>